<svg xmlns="http://www.w3.org/2000/svg" viewBox="0 0 112 120" width="112" height="120">
  <defs>
    <radialGradient id="lichRobe" cx="50%" cy="40%" r="65%">
      <stop offset="0%" stop-color="#2A3A60"></stop>
      <stop offset="100%" stop-color="#080A18"></stop>
    </radialGradient>
    <radialGradient id="lichSoul" cx="50%" cy="50%" r="50%">
      <stop offset="0%" stop-color="#80F0FF"></stop>
      <stop offset="100%" stop-color="#0040A0"></stop>
    </radialGradient>
    <radialGradient id="lichBone" cx="50%" cy="40%" r="60%">
      <stop offset="0%" stop-color="#E8E4C0"></stop>
      <stop offset="100%" stop-color="#909070"></stop>
    </radialGradient>
    <filter id="lichShadow">
      <feDropShadow dx="0" dy="4" stdDeviation="4" flood-color="#000" flood-opacity="0.7"></feDropShadow>
    </filter>
    <filter id="lichGlow">
      <feGaussianBlur stdDeviation="4" result="blur"></feGaussianBlur>
      <feMerge><feMergeNode in="blur"></feMergeNode><feMergeNode in="SourceGraphic"></feMergeNode></feMerge>
    </filter>
    <filter id="lichAura">
      <feGaussianBlur stdDeviation="8" result="blur"></feGaussianBlur>
      <feMerge><feMergeNode in="blur"></feMergeNode><feMergeNode in="SourceGraphic"></feMergeNode></feMerge>
    </filter>
  </defs>

  
  <ellipse cx="56" cy="60" rx="54" ry="56" fill="#002840" opacity="0.35" filter="url(#lichAura)"></ellipse>
  
  <circle cx="24" cy="30" r="3" fill="#40C0FF" opacity="0.6" filter="url(#lichGlow)"></circle>
  <circle cx="88" cy="24" r="2" fill="#80D0FF" opacity="0.5" filter="url(#lichGlow)"></circle>
  <circle cx="16" cy="54" r="2" fill="#40A0E0" opacity="0.4" filter="url(#lichGlow)"></circle>
  <circle cx="96" cy="48" r="3" fill="#40C0FF" opacity="0.5" filter="url(#lichGlow)"></circle>
  <circle cx="30" cy="88" r="2" fill="#60B0FF" opacity="0.4" filter="url(#lichGlow)"></circle>

  
  <ellipse cx="56" cy="116" rx="24" ry="4" fill="#000" opacity="0.3"></ellipse>

  
  <path d="M28 76 Q14 88 12 108 Q22 102 30 104 Q32 110 36 108 L40 76Z" fill="#0A0E1E" opacity="0.95" filter="url(#lichShadow)"></path>
  <path d="M44 78 Q40 94 38 110 Q44 106 48 108 L52 78Z" fill="#080C1A" opacity="0.9"></path>
  <path d="M60 78 Q64 94 62 110 Q68 106 64 108 L68 78Z" fill="#080C1A" opacity="0.9"></path>
  <path d="M72 76 Q86 88 88 108 Q80 102 72 104 Q70 110 66 108 L68 76Z" fill="#0A0E1E" opacity="0.95" filter="url(#lichShadow)"></path>
  
  <path d="M12 108 Q22 102 30 104 Q32 110 36 108" stroke="#2060A0" stroke-width="1" fill="none" opacity="0.7"></path>
  <path d="M76 104 Q84 106 88 108" stroke="#2060A0" stroke-width="1" fill="none" opacity="0.7"></path>

  
  <rect x="34" y="74" width="10" height="28" rx="3" fill="url(#lichBone)" opacity="0.5" filter="url(#lichShadow)"></rect>
  <rect x="68" y="74" width="10" height="28" rx="3" fill="url(#lichBone)" opacity="0.5" filter="url(#lichShadow)"></rect>
  <circle cx="39" cy="88" r="6" fill="#D0CC9A" opacity="0.6"></circle>
  <circle cx="73" cy="88" r="6" fill="#D0CC9A" opacity="0.6"></circle>

  
  <path d="M22 38 L16 52 L18 78 L26 82 L86 82 L94 78 L96 52 L90 38Z" fill="url(#lichRobe)" filter="url(#lichShadow)"></path>
  
  <path d="M34 46 Q56 52 78 46" stroke="#2080C0" stroke-width="1.5" fill="none" opacity="0.5"></path>
  <path d="M30 56 Q56 62 82 56" stroke="#2080C0" stroke-width="1.5" fill="none" opacity="0.4"></path>
  <path d="M28 66 Q56 70 84 66" stroke="#2080C0" stroke-width="1" fill="none" opacity="0.3"></path>
  
  <text x="38" y="60" font-size="10" fill="#40A0D0" opacity="0.5" font-family="serif">ᚱ</text>
  <text x="60" y="58" font-size="10" fill="#40A0D0" opacity="0.4" font-family="serif">ᚢ</text>
  <text x="50" y="72" font-size="8" fill="#40A0D0" opacity="0.4" font-family="serif">ᚦ</text>
  
  <circle cx="56" cy="58" r="10" fill="#040814" stroke="#2060A0" stroke-width="1.5" filter="url(#lichShadow)"></circle>
  <circle cx="56" cy="58" r="6" fill="url(#lichSoul)" filter="url(#lichGlow)" opacity="0.9"></circle>
  <circle cx="54" cy="56" r="2" fill="#C0F0FF"></circle>
  
  <path d="M56 48 Q58 42 64 38" stroke="#40C0FF" stroke-width="1" fill="none" opacity="0.6" filter="url(#lichGlow)"></path>
  <path d="M56 48 Q52 42 46 38" stroke="#40C0FF" stroke-width="1" fill="none" opacity="0.5" filter="url(#lichGlow)"></path>

  
  <ellipse cx="18" cy="42" rx="12" ry="10" fill="#1A2040" filter="url(#lichShadow)"></ellipse>
  <ellipse cx="94" cy="42" rx="12" ry="10" fill="#1A2040" filter="url(#lichShadow)"></ellipse>

  
  <rect x="4" y="42" width="16" height="28" rx="6" fill="#1A2040" filter="url(#lichShadow)"></rect>
  <rect x="92" y="42" width="16" height="28" rx="6" fill="#1A2040" filter="url(#lichShadow)"></rect>
  
  <rect x="6" y="62" width="12" height="8" rx="3" fill="url(#lichBone)" opacity="0.7"></rect>
  <rect x="94" y="62" width="12" height="8" rx="3" fill="url(#lichBone)" opacity="0.7"></rect>

  
  <rect x="94" y="10" width="6" height="82" rx="2" fill="#5A4828" filter="url(#lichShadow)"></rect>
  
  <path d="M95 18 Q101 24 95 32 Q101 38 95 46" stroke="#3A2A18" stroke-width="1.5" fill="none" opacity="0.6"></path>
  
  <circle cx="97" cy="12" r="14" fill="#020608" filter="url(#lichShadow)"></circle>
  <circle cx="97" cy="12" r="10" fill="url(#lichSoul)" filter="url(#lichGlow)" opacity="0.85"></circle>
  <circle cx="94" cy="9" r="4" fill="#C0F0FF" opacity="0.7"></circle>
  
  <path d="M90 8 Q97 4 104 10 Q100 18 92 14Z" fill="#80D0FF" opacity="0.3" filter="url(#lichGlow)"></path>
  
  <ellipse cx="97" cy="36" rx="6" ry="5" fill="url(#lichBone)" opacity="0.8"></ellipse>
  <ellipse cx="95" cy="35" rx="1.5" ry="1.5" fill="#0A0A0A"></ellipse>
  <ellipse cx="99" cy="35" rx="1.5" ry="1.5" fill="#0A0A0A"></ellipse>
  <path d="M93 38 L101 38" stroke="#A09870" stroke-width="1" fill="none" opacity="0.5"></path>

  
  <path d="M92 68 Q90 72 92 74 L96 72 Q98 76 100 74 Q100 70 100 68Z" fill="#C8C490"></path>
  
  <path d="M96 68 Q100 60 106 56" stroke="#40C0FF" stroke-width="1.5" fill="none" opacity="0.5" filter="url(#lichGlow)"></path>

  
  <ellipse cx="12" cy="68" rx="8" ry="7" fill="#C8C490" opacity="0.8"></ellipse>
  <path d="M6 64 L2 58" stroke="#D0CC9A" stroke-width="2" stroke-linecap="round"></path>
  <path d="M8 62 L6 54" stroke="#D0CC9A" stroke-width="2" stroke-linecap="round"></path>
  <path d="M12 62 L12 54" stroke="#D0CC9A" stroke-width="2" stroke-linecap="round"></path>
  <path d="M16 64 L18 56" stroke="#D0CC9A" stroke-width="2" stroke-linecap="round"></path>
  
  <circle cx="8" cy="58" r="6" fill="#40C0FF" opacity="0.5" filter="url(#lichGlow)"></circle>
  <circle cx="4" cy="52" r="4" fill="#80D0FF" opacity="0.4" filter="url(#lichGlow)"></circle>

  
  <ellipse cx="56" cy="24" rx="24" ry="22" fill="url(#lichBone)" filter="url(#lichShadow)"></ellipse>
  
  <ellipse cx="56" cy="16" rx="20" ry="14" fill="#D8D4B0" opacity="0.6"></ellipse>
  
  <path d="M34 28 Q56 36 78 28 L76 38 Q56 44 36 38Z" fill="#C8C490" filter="url(#lichShadow)"></path>
  
  <rect x="40" y="36" width="5" height="8" rx="1" fill="#F0ECD8"></rect>
  <rect x="47" y="37" width="5" height="7" rx="1" fill="#F0ECD8"></rect>
  <rect x="54" y="37" width="5" height="7" rx="1" fill="#F0ECD8"></rect>
  <rect x="61" y="37" width="5" height="7" rx="1" fill="#F0ECD8"></rect>
  <rect x="68" y="36" width="5" height="8" rx="1" fill="#F0ECD8"></rect>
  
  <rect x="40" y="30" width="5" height="6" rx="1" fill="#E8E4D0"></rect>
  <rect x="47" y="29" width="5" height="7" rx="1" fill="#E8E4D0"></rect>
  <rect x="54" y="29" width="5" height="7" rx="1" fill="#E8E4D0"></rect>
  <rect x="61" y="29" width="5" height="7" rx="1" fill="#E8E4D0"></rect>
  <rect x="68" y="30" width="5" height="6" rx="1" fill="#E8E4D0"></rect>
  
  <ellipse cx="40" cy="20" rx="9" ry="8" fill="#040810"></ellipse>
  <ellipse cx="72" cy="20" rx="9" ry="8" fill="#040810"></ellipse>
  <ellipse cx="40" cy="20" rx="6" ry="5" fill="url(#lichSoul)" filter="url(#lichGlow)" opacity="0.95"></ellipse>
  <ellipse cx="72" cy="20" rx="6" ry="5" fill="url(#lichSoul)" filter="url(#lichGlow)" opacity="0.95"></ellipse>
  <ellipse cx="40" cy="19" rx="3" ry="2.5" fill="#C0F0FF"></ellipse>
  <ellipse cx="72" cy="19" rx="3" ry="2.5" fill="#C0F0FF"></ellipse>
  
  <path d="M52 26 L56 30 L60 26" stroke="#808060" stroke-width="1.5" fill="#9A9468" opacity="0.6"></path>
  
  <path d="M36 8 Q34 0 38 -2 Q40 4 40 8" fill="#D4D0A0"></path>
  <path d="M44 6 Q42 -2 46 -4 Q50 -2 48 6" fill="#E0DCA8"></path>
  <path d="M56 4 Q54 -4 58 -6 Q62 -4 60 4" fill="#E0DCA8"></path>
  <path d="M66 6 Q66 -2 70 -4 Q74 -2 72 6" fill="#E0DCA8"></path>
  <path d="M74 8 Q78 0 78 -2 Q74 4 72 8" fill="#D4D0A0"></path>
  
  <rect x="34" y="8" width="44" height="6" rx="1" fill="#2A2818" stroke="#60A0C0" stroke-width="1" opacity="0.8"></rect>
  <circle cx="44" cy="11" r="2.5" fill="#40C0FF" filter="url(#lichGlow)"></circle>
  <circle cx="56" cy="11" r="2.5" fill="#40C0FF" filter="url(#lichGlow)"></circle>
  <circle cx="68" cy="11" r="2.5" fill="#40C0FF" filter="url(#lichGlow)"></circle>
  
  <path d="M52 10 Q50 16 54 20" stroke="#909070" stroke-width="1" fill="none" opacity="0.4"></path>
  <path d="M62 8 Q64 14 60 18" stroke="#909070" stroke-width="1" fill="none" opacity="0.4"></path>
</svg>