<svg xmlns="http://www.w3.org/2000/svg" viewBox="0 0 80 80" width="80" height="80">
  <defs>
    <radialGradient id="ratFur" cx="50%" cy="40%" r="60%">
      <stop offset="0%" stop-color="#C8844A"></stop>
      <stop offset="100%" stop-color="#6A3C14"></stop>
    </radialGradient>
    <radialGradient id="ratBelly" cx="50%" cy="50%" r="50%">
      <stop offset="0%" stop-color="#E0B090"></stop>
      <stop offset="100%" stop-color="#A06040"></stop>
    </radialGradient>
    <filter id="ratShadow">
      <feDropShadow dx="0" dy="2" stdDeviation="2" flood-color="#000" flood-opacity="0.5"></feDropShadow>
    </filter>
  </defs>
  <ellipse cx="40" cy="76" rx="18" ry="4" fill="#000" opacity="0.3"></ellipse>
  
  <path d="M18 58 Q8 52 6 40 Q4 28 12 24" stroke="#8A5030" stroke-width="3" fill="none" stroke-linecap="round" filter="url(#ratShadow)"></path>
  <path d="M18 58 Q8 52 6 40 Q4 28 12 24" stroke="#C07050" stroke-width="1.5" fill="none" stroke-linecap="round" opacity="0.5"></path>
  
  <ellipse cx="44" cy="56" rx="22" ry="16" fill="url(#ratFur)" filter="url(#ratShadow)"></ellipse>
  
  <ellipse cx="42" cy="60" rx="14" ry="10" fill="url(#ratBelly)" opacity="0.7"></ellipse>
  
  <ellipse cx="26" cy="66" rx="7" ry="5" fill="#6A3C14"></ellipse>
  <ellipse cx="58" cy="66" rx="7" ry="5" fill="#6A3C14"></ellipse>
  
  <path d="M20 68 Q18 72 16 70 Q18 74 22 72 Q24 76 28 74 Q26 70 24 68Z" fill="#5A3010"></path>
  <path d="M52 68 Q50 72 48 70 Q50 74 54 72 Q56 76 60 74 Q62 70 62 68Z" fill="#5A3010"></path>
  
  <ellipse cx="58" cy="44" rx="18" ry="15" fill="url(#ratFur)" filter="url(#ratShadow)"></ellipse>
  
  <ellipse cx="72" cy="48" rx="8" ry="6" fill="#A06040"></ellipse>
  <circle cx="76" cy="47" r="2" fill="#3A1A08"></circle>
  
  <ellipse cx="78" cy="46" r="3" fill="#E07080" rx="3" ry="2"></ellipse>
  
  <circle cx="62" cy="40" r="4" fill="#1A0808"></circle>
  <circle cx="62" cy="40" r="2" fill="#CC2020"></circle>
  <circle cx="63" cy="39" r="1" fill="#fff" opacity="0.7"></circle>
  
  <ellipse cx="50" cy="32" rx="7" ry="9" fill="#5A2E10"></ellipse>
  <ellipse cx="50" cy="32" rx="5" ry="7" fill="#E07080" opacity="0.7"></ellipse>
  <ellipse cx="62" cy="30" rx="6" ry="8" fill="#5A2E10"></ellipse>
  <ellipse cx="62" cy="30" rx="4" ry="6" fill="#E07080" opacity="0.7"></ellipse>
  
  <line x1="72" y1="46" x2="79" y2="42" stroke="#D0B090" stroke-width="0.8" opacity="0.8"></line>
  <line x1="72" y1="48" x2="80" y2="48" stroke="#D0B090" stroke-width="0.8" opacity="0.8"></line>
  <line x1="72" y1="50" x2="79" y2="54" stroke="#D0B090" stroke-width="0.8" opacity="0.8"></line>
  <line x1="72" y1="46" x2="65" y2="42" stroke="#D0B090" stroke-width="0.8" opacity="0.6"></line>
  <line x1="72" y1="50" x2="65" y2="54" stroke="#D0B090" stroke-width="0.8" opacity="0.6"></line>
  
  <ellipse cx="34" cy="66" rx="5" ry="4" fill="#7A4820"></ellipse>
  <ellipse cx="50" cy="68" rx="5" ry="4" fill="#7A4820"></ellipse>
</svg>