<svg xmlns="http://www.w3.org/2000/svg" viewBox="0 0 96 96" width="96" height="96">
  <defs>
    <radialGradient id="armorGrad" cx="50%" cy="40%" r="60%">
      <stop offset="0%" stop-color="#F5D060"></stop>
      <stop offset="60%" stop-color="#C8920A"></stop>
      <stop offset="100%" stop-color="#7A5500"></stop>
    </radialGradient>
    <radialGradient id="shieldGrad" cx="40%" cy="30%" r="70%">
      <stop offset="0%" stop-color="#4A7FC4"></stop>
      <stop offset="100%" stop-color="#1A3A6A"></stop>
    </radialGradient>
    <radialGradient id="swordGrad" cx="50%" cy="0%" r="100%">
      <stop offset="0%" stop-color="#E8EAF6"></stop>
      <stop offset="100%" stop-color="#8090B0"></stop>
    </radialGradient>
    <filter id="heroGlow">
      <feGaussianBlur stdDeviation="2" result="blur"></feGaussianBlur>
      <feMerge><feMergeNode in="blur"></feMergeNode><feMergeNode in="SourceGraphic"></feMergeNode></feMerge>
    </filter>
    <filter id="shadow">
      <feDropShadow dx="0" dy="3" stdDeviation="3" flood-color="#000" flood-opacity="0.6"></feDropShadow>
    </filter>
  </defs>

  
  <ellipse cx="48" cy="90" rx="22" ry="5" fill="#000" opacity="0.4"></ellipse>

  
  <path d="M32 38 Q20 55 22 80 Q30 72 38 70 L40 38Z" fill="#8B0000" opacity="0.85"></path>
  <path d="M64 38 Q76 55 74 80 Q66 72 58 70 L56 38Z" fill="#6B0000" opacity="0.85"></path>

  
  <rect x="34" y="44" width="28" height="28" rx="3" fill="url(#armorGrad)" filter="url(#shadow)"></rect>
  
  <path d="M48 46 L48 70" stroke="#A07010" stroke-width="1.5" opacity="0.7"></path>
  <path d="M36 52 Q48 56 60 52" stroke="#F0C030" stroke-width="1" fill="none" opacity="0.6"></path>
  <path d="M36 58 Q48 62 60 58" stroke="#F0C030" stroke-width="1" fill="none" opacity="0.5"></path>
  
  <rect x="33" y="68" width="30" height="5" rx="1" fill="#5A3800"></rect>
  <rect x="44" y="67" width="8" height="7" rx="1" fill="#D4A020"></rect>

  
  <ellipse cx="31" cy="46" rx="8" ry="6" fill="url(#armorGrad)"></ellipse>
  <path d="M24 44 Q31 40 38 44" stroke="#F0C030" stroke-width="1" fill="none" opacity="0.7"></path>
  
  <ellipse cx="65" cy="46" rx="8" ry="6" fill="url(#armorGrad)"></ellipse>
  <path d="M58 44 Q65 40 72 44" stroke="#F0C030" stroke-width="1" fill="none" opacity="0.7"></path>

  
  <rect x="22" y="46" width="10" height="18" rx="3" fill="#B08010"></rect>
  
  <path d="M12 44 L22 40 L22 70 Q17 74 12 70 Q8 64 10 52Z" fill="url(#shieldGrad)" filter="url(#shadow)"></path>
  <path d="M13 46 L21 42 L21 68 Q17 71 13 68 Q10 63 11 53Z" stroke="#6090D8" stroke-width="1" fill="none" opacity="0.5"></path>
  
  <path d="M17 50 L17 62 M12 56 L22 56" stroke="#D4A020" stroke-width="2" opacity="0.8"></path>

  
  <rect x="64" y="46" width="10" height="18" rx="3" fill="#B08010"></rect>
  
  <line x1="78" y1="22" x2="70" y2="72" stroke="url(#swordGrad)" stroke-width="4" stroke-linecap="round" filter="url(#shadow)"></line>
  
  <rect x="65" y="55" width="18" height="5" rx="2" fill="#D4A020" filter="url(#shadow)"></rect>
  
  <rect x="71" y="60" width="5" height="14" rx="2" fill="#5A3000"></rect>
  
  <circle cx="73" cy="74" r="4" fill="#D4A020"></circle>

  
  <rect x="35" y="71" width="11" height="16" rx="2" fill="#8A7000"></rect>
  <rect x="50" y="71" width="11" height="16" rx="2" fill="#8A7000"></rect>
  
  <rect x="34" y="80" width="13" height="8" rx="2" fill="#B09010"></rect>
  <rect x="49" y="80" width="13" height="8" rx="2" fill="#B09010"></rect>
  
  <path d="M34 86 Q32 92 34 94 L47 94 L47 86Z" fill="#3A2800" rx="2"></path>
  <path d="M49 86 Q47 92 49 94 L62 94 L62 86Z" fill="#3A2800" rx="2"></path>

  
  <rect x="42" y="32" width="12" height="12" rx="2" fill="#D4A020"></rect>

  
  <path d="M28 28 Q28 8 48 6 Q68 8 68 28 L66 36 Q56 40 48 40 Q40 40 30 36Z" fill="url(#armorGrad)" filter="url(#shadow)"></path>
  
  <path d="M32 26 L64 26 L62 34 Q56 38 48 38 Q40 38 34 34Z" fill="#1A1A2E"></path>
  
  <rect x="34" y="28" width="28" height="3" rx="1" fill="#0A0A1A"></rect>
  
  <rect x="36" y="27" width="8" height="5" rx="1" fill="#FF6020" opacity="0.5"></rect>
  <rect x="52" y="27" width="8" height="5" rx="1" fill="#FF6020" opacity="0.5"></rect>
  
  <path d="M48 6 L48 20" stroke="#F0C030" stroke-width="3" stroke-linecap="round"></path>
  
  <path d="M42 6 Q36 0 32 4 Q36 8 40 10 Q36 6 34 10 Q38 12 42 12" fill="#CC2020" opacity="0.9"></path>
  <path d="M54 6 Q60 0 64 4 Q60 8 56 10 Q60 6 62 10 Q58 12 54 12" fill="#AA1010" opacity="0.9"></path>
  
  <path d="M30 28 Q30 10 48 8 Q66 10 66 28" stroke="#F0C030" stroke-width="1.5" fill="none" opacity="0.7"></path>
</svg>