<svg xmlns="http://www.w3.org/2000/svg" viewBox="0 0 96 96" width="96" height="96">
  <defs>
    <radialGradient id="hArmorGrad" cx="50%" cy="40%" r="60%">
      <stop offset="0%" stop-color="#F0C840"></stop>
      <stop offset="60%" stop-color="#A07008"></stop>
      <stop offset="100%" stop-color="#604000"></stop>
    </radialGradient>
    <filter id="hShadow">
      <feDropShadow dx="0" dy="3" stdDeviation="3" flood-color="#000" flood-opacity="0.6"></feDropShadow>
    </filter>
    <filter id="hurtGlow">
      <feGaussianBlur stdDeviation="4" result="blur"></feGaussianBlur>
      <feMerge><feMergeNode in="blur"></feMergeNode><feMergeNode in="SourceGraphic"></feMergeNode></feMerge>
    </filter>
  </defs>

  
  <ellipse cx="48" cy="52" rx="38" ry="40" fill="#FF3020" opacity="0.2" filter="url(#hurtGlow)"></ellipse>

  
  <ellipse cx="50" cy="91" rx="20" ry="4" fill="#000" opacity="0.4"></ellipse>

  
  <path d="M30 36 Q14 40 8 60 Q16 58 28 62 L34 38Z" fill="#8B0000" opacity="0.85"></path>
  <path d="M62 38 Q80 36 86 54 Q78 56 66 58 L60 36Z" fill="#6B0000" opacity="0.7"></path>

  
  <rect x="34" y="46" width="26" height="26" rx="3" fill="url(#hArmorGrad)" filter="url(#hShadow)" transform="rotate(12 47 59)"></rect>
  
  <path d="M40 50 L50 62" stroke="#FF4020" stroke-width="2" opacity="0.7" transform="rotate(12 47 56)"></path>
  <path d="M44 48 L52 58" stroke="#FF6040" stroke-width="1" opacity="0.5" transform="rotate(12 47 53)"></path>

  
  <rect x="33" y="69" width="28" height="5" rx="1" fill="#4A2800" transform="rotate(12 47 71)"></rect>

  
  <ellipse cx="30" cy="48" rx="8" ry="6" fill="url(#hArmorGrad)"></ellipse>
  <ellipse cx="64" cy="47" rx="8" ry="6" fill="url(#hArmorGrad)"></ellipse>

  
  <rect x="20" y="38" width="10" height="18" rx="3" fill="#906000"></rect>
  
  <path d="M10 30 L22 26 L24 58 Q18 64 10 58 Q4 52 6 40Z" fill="#2A5090" filter="url(#hShadow)"></path>
  
  <path d="M14 36 L18 50" stroke="#90B8E8" stroke-width="1" opacity="0.4"></path>
  <path d="M16 36 L19 44" stroke="#FF4020" stroke-width="1.5" opacity="0.6"></path>
  <path d="M13 42 L16 56 M8 48 L18 48" stroke="#D4A020" stroke-width="1.5" opacity="0.6"></path>

  
  <rect x="62" y="54" width="10" height="16" rx="3" fill="#906000" transform="rotate(40 67 62)"></rect>
  
  <line x1="68" y1="56" x2="88" y2="86" stroke="#C0C8E0" stroke-width="4" stroke-linecap="round" filter="url(#hShadow)" transform="rotate(15 78 71)"></line>
  <rect x="64" y="66" width="16" height="5" rx="2" fill="#C08010" transform="rotate(55 72 68)" filter="url(#hShadow)"></rect>
  <rect x="70" y="71" width="5" height="12" rx="2" fill="#4A2800" transform="rotate(55 73 77)"></rect>
  <circle cx="76" cy="84" r="3" fill="#C08010"></circle>

  
  <circle cx="56" cy="44" r="3" fill="#CC2020" opacity="0.8" filter="url(#hurtGlow)"></circle>
  <circle cx="62" cy="50" r="2" fill="#CC2020" opacity="0.7"></circle>
  <circle cx="58" cy="38" r="1.5" fill="#AA1010" opacity="0.6"></circle>
  <path d="M54 42 L60 36" stroke="#CC2020" stroke-width="1.5" opacity="0.5"></path>

  
  <rect x="32" y="73" width="11" height="15" rx="2" fill="#7A6000" transform="rotate(-15 38 80)"></rect>
  <rect x="48" y="71" width="11" height="15" rx="2" fill="#7A6000" transform="rotate(20 54 78)"></rect>
  <rect x="30" y="80" width="13" height="8" rx="2" fill="#988000" transform="rotate(-15 36 84)"></rect>
  <rect x="47" y="80" width="13" height="8" rx="2" fill="#988000" transform="rotate(20 54 84)"></rect>
  <path d="M28 84 Q26 90 28 92 L40 90 L42 82Z" fill="#3A2800"></path>
  <path d="M49 82 Q50 90 52 92 L62 88 L60 80Z" fill="#3A2800"></path>

  
  <rect x="40" y="34" width="12" height="12" rx="2" fill="#B88010"></rect>

  
  <path d="M26 30 Q28 10 48 8 Q66 10 68 30 L66 38 Q56 42 48 42 Q40 42 32 38Z" fill="url(#hArmorGrad)" filter="url(#hShadow)" transform="rotate(10 47 25)"></path>
  <path d="M30 28 L64 28 L62 36 Q56 40 48 40 Q40 40 34 36Z" fill="#1A1A2E" transform="rotate(10 47 25)"></path>
  
  <rect x="34" y="28" width="7" height="4" rx="1" fill="#660000" opacity="0.6"></rect>
  <rect x="50" y="29" width="7" height="4" rx="1" fill="#660000" opacity="0.6"></rect>
  
  <circle cx="62" cy="22" r="3" fill="#FF8020" opacity="0.8" filter="url(#hurtGlow)"></circle>
  <line x1="62" y1="22" x2="68" y2="16" stroke="#FF8020" stroke-width="1.5" opacity="0.7"></line>
  <line x1="62" y1="22" x2="70" y2="24" stroke="#FFD040" stroke-width="1.5" opacity="0.6"></line>
  <path d="M44 8 L44 20" stroke="#C08020" stroke-width="3" stroke-linecap="round" transform="rotate(10 44 14)"></path>
  <path d="M28 30 Q30 12 46 8 Q64 10 66 30" stroke="#D0A020" stroke-width="1.5" fill="none" opacity="0.5" transform="rotate(10 47 19)"></path>
</svg>