<svg xmlns="http://www.w3.org/2000/svg" viewBox="0 0 320 80" width="320" height="80">
  <defs>
    <radialGradient id="potionRed" cx="40%" cy="30%" r="70%">
      <stop offset="0%" stop-color="#FF8080"></stop>
      <stop offset="100%" stop-color="#880010"></stop>
    </radialGradient>
    <radialGradient id="potionBig" cx="40%" cy="30%" r="70%">
      <stop offset="0%" stop-color="#FFA090"></stop>
      <stop offset="100%" stop-color="#AA1020"></stop>
    </radialGradient>
    <radialGradient id="daggerMetal" cx="50%" cy="0%" r="100%">
      <stop offset="0%" stop-color="#E8ECF8"></stop>
      <stop offset="100%" stop-color="#6878A0"></stop>
    </radialGradient>
    <radialGradient id="swordMetal" cx="50%" cy="0%" r="100%">
      <stop offset="0%" stop-color="#F0F4FF"></stop>
      <stop offset="100%" stop-color="#8090C0"></stop>
    </radialGradient>
    <radialGradient id="leatherGrad" cx="40%" cy="30%" r="70%">
      <stop offset="0%" stop-color="#C88840"></stop>
      <stop offset="100%" stop-color="#603008"></stop>
    </radialGradient>
    <radialGradient id="chainGrad" cx="40%" cy="30%" r="70%">
      <stop offset="0%" stop-color="#A0A8C0"></stop>
      <stop offset="100%" stop-color="#404868"></stop>
    </radialGradient>
    <radialGradient id="plateGrad" cx="40%" cy="30%" r="70%">
      <stop offset="0%" stop-color="#D0D8F0"></stop>
      <stop offset="100%" stop-color="#6070A0"></stop>
    </radialGradient>
    <radialGradient id="scrollGrad" cx="40%" cy="30%" r="70%">
      <stop offset="0%" stop-color="#C08CE0"></stop>
      <stop offset="100%" stop-color="#601090"></stop>
    </radialGradient>
    <radialGradient id="amuletGrad" cx="40%" cy="30%" r="70%">
      <stop offset="0%" stop-color="#F0D060"></stop>
      <stop offset="100%" stop-color="#806010"></stop>
    </radialGradient>
    <filter id="itemShadow">
      <feDropShadow dx="0" dy="2" stdDeviation="2" flood-color="#000" flood-opacity="0.5"></feDropShadow>
    </filter>
    <filter id="glowItem">
      <feGaussianBlur stdDeviation="2" result="blur"></feGaussianBlur>
      <feMerge><feMergeNode in="blur"></feMergeNode><feMergeNode in="SourceGraphic"></feMergeNode></feMerge>
    </filter>
  </defs>

  
  <g transform="translate(8, 4)">
    
    <path d="M22 20 L22 14 Q20 12 18 8 L30 8 Q28 12 26 14 L26 20 Q32 24 34 34 Q34 44 24 46 Q14 44 14 34 Q14 24 22 20Z" fill="url(#potionRed)" filter="url(#itemShadow)"></path>
    
    <path d="M18 30 Q24 26 30 30 Q28 40 24 42 Q20 40 18 30Z" fill="#FF6060" opacity="0.5"></path>
    
    <ellipse cx="19" cy="28" rx="3" ry="4" fill="#FFC0C0" opacity="0.6"></ellipse>
    
    <rect x="19" y="6" width="10" height="4" rx="1" fill="#8A5020"></rect>
    <rect x="20" y="4" width="8" height="3" rx="1" fill="#B06828"></rect>
    
    <rect x="22" y="33" width="4" height="10" rx="1" fill="#FF2020" opacity="0.7"></rect>
    <rect x="19" y="36" width="10" height="4" rx="1" fill="#FF2020" opacity="0.7"></rect>
    
  </g>

  
  <g transform="translate(72, 2)">
    <path d="M24 22 L24 14 Q22 10 20 6 L34 6 Q32 10 30 14 L30 22 Q38 26 40 38 Q40 52 27 54 Q14 52 14 38 Q14 26 24 22Z" fill="url(#potionBig)" filter="url(#itemShadow)"></path>
    <path d="M18 34 Q27 28 36 34 Q34 46 27 48 Q20 46 18 34Z" fill="#FF7070" opacity="0.5"></path>
    <ellipse cx="20" cy="32" rx="3" ry="5" fill="#FFC0C0" opacity="0.6"></ellipse>
    <rect x="21" y="4" width="12" height="4" rx="1" fill="#8A5020"></rect>
    <rect x="22" y="2" width="10" height="3" rx="1" fill="#B06828"></rect>
    
    <rect x="24" y="36" width="6" height="14" rx="1" fill="#FF3030" opacity="0.8"></rect>
    <rect x="20" y="40" width="14" height="6" rx="1" fill="#FF3030" opacity="0.8"></rect>
    
    <circle cx="17" cy="28" r="2" fill="#FFD040" filter="url(#glowItem)" opacity="0.7"></circle>
    <circle cx="37" cy="28" r="2" fill="#FFD040" filter="url(#glowItem)" opacity="0.7"></circle>
  </g>

  
  <g transform="translate(144, 4)">
    
    <path d="M32 4 L36 8 L28 68 L24 64Z" fill="url(#daggerMetal)" filter="url(#itemShadow)"></path>
    
    <line x1="30" y1="10" x2="26" y2="62" stroke="#9098B8" stroke-width="1" opacity="0.5"></line>
    
    <path d="M32 4 L36 8 L30 56" stroke="#F0F4FF" stroke-width="1" opacity="0.4"></path>
    
    <rect x="20" y="52" width="20" height="5" rx="2" fill="#C0A030" filter="url(#itemShadow)"></rect>
    
    <rect x="25" y="57" width="10" height="14" rx="3" fill="#3A1A08"></rect>
    <path d="M25 60 Q35 62 25 66 Q35 68 25 70" stroke="#5A2808" stroke-width="1" fill="none" opacity="0.6"></path>
    
    <ellipse cx="30" cy="72" rx="6" ry="4" fill="#C0A030"></ellipse>
  </g>

  
  <g transform="translate(200, 2)">
    <path d="M32 2 L36 6 L28 72 L24 68Z" fill="url(#swordMetal)" filter="url(#itemShadow)"></path>
    
    <path d="M31 14 L29 22 M31 22 L29 30" stroke="#9098C0" stroke-width="1" opacity="0.5"></path>
    <line x1="30" y1="8" x2="26" y2="65" stroke="#A8B0D0" stroke-width="1" opacity="0.5"></line>
    <path d="M32 2 L36 6 L32 60" stroke="#F8FAFF" stroke-width="1.5" opacity="0.5"></path>
    <rect x="18" y="58" width="28" height="6" rx="2" fill="#C8A828" filter="url(#itemShadow)"></rect>
    <rect x="23" y="64" width="14" height="8" rx="3" fill="#4A2808"></rect>
    <ellipse cx="30" cy="74" rx="8" ry="5" fill="#C8A828" filter="url(#itemShadow)"></ellipse>
    <ellipse cx="30" cy="74" rx="4" ry="3" fill="#E8C840"></ellipse>
  </g>

  
  <g transform="translate(258, 4)">
    <path d="M8 24 Q16 14 28 12 Q40 14 48 24 L46 52 Q40 60 28 62 Q16 60 10 52Z" fill="url(#leatherGrad)" filter="url(#itemShadow)"></path>
    
    <path d="M10 28 Q28 22 46 28" stroke="#4A2008" stroke-width="1.5" fill="none" opacity="0.5"></path>
    <path d="M10 36 Q28 30 46 36" stroke="#4A2008" stroke-width="1.5" fill="none" opacity="0.4"></path>
    <path d="M12 44 Q28 38 44 44" stroke="#4A2008" stroke-width="1" fill="none" opacity="0.3"></path>
    
    <rect x="24" y="28" width="8" height="6" rx="1" fill="#8A6010"></rect>
    
    <ellipse cx="14" cy="22" rx="8" ry="6" fill="#B07030"></ellipse>
    <ellipse cx="42" cy="22" rx="8" ry="6" fill="#B07030"></ellipse>
    
    <path d="M20 14 Q28 10 36 14" stroke="#6A3810" stroke-width="2" fill="none"></path>
  </g>
</svg>