<svg xmlns="http://www.w3.org/2000/svg" viewBox="0 0 384 128" width="384" height="128">
  <defs>
    <radialGradient id="wallGrad" cx="30%" cy="30%" r="80%">
      <stop offset="0%" stop-color="#6A6A88"></stop>
      <stop offset="100%" stop-color="#2E2E46"></stop>
    </radialGradient>
    <radialGradient id="floorGrad" cx="50%" cy="50%" r="80%">
      <stop offset="0%" stop-color="#3A3A52"></stop>
      <stop offset="100%" stop-color="#1A1A28"></stop>
    </radialGradient>
    <radialGradient id="stairsGrad" cx="50%" cy="30%" r="70%">
      <stop offset="0%" stop-color="#F0D070"></stop>
      <stop offset="100%" stop-color="#806010"></stop>
    </radialGradient>
    <pattern id="stonePat" x="0" y="0" width="16" height="16" patternUnits="userSpaceOnUse">
      <rect width="16" height="16" fill="#38384E"></rect>
      <path d="M0 8 L8 8 L8 16" stroke="#282838" stroke-width="0.5" fill="none"></path>
      <path d="M8 0 L16 0 L16 8" stroke="#282838" stroke-width="0.5" fill="none"></path>
    </pattern>
    <pattern id="floorPat" x="0" y="0" width="32" height="32" patternUnits="userSpaceOnUse">
      <rect width="32" height="32" fill="#2D2D3E"></rect>
      <rect x="0" y="0" width="32" height="32" fill="none" stroke="#3A3A4E" stroke-width="1"></rect>
    </pattern>
    <filter id="tileShadow">
      <feDropShadow dx="1" dy="1" stdDeviation="1" flood-color="#000" flood-opacity="0.4"></feDropShadow>
    </filter>
    <filter id="tileGlow">
      <feGaussianBlur stdDeviation="2" result="blur"></feGaussianBlur>
      <feMerge><feMergeNode in="blur"></feMergeNode><feMergeNode in="SourceGraphic"></feMergeNode></feMerge>
    </filter>
  </defs>

  
  <g transform="translate(0, 32)">
    
    <rect width="64" height="64" fill="url(#stonePat)"></rect>
    <rect width="64" height="64" fill="#46465C" opacity="0.6"></rect>
    
    <rect width="64" height="8" fill="#64647D"></rect>
    
    <rect width="4" height="64" fill="#525270"></rect>
    
    <rect x="6" y="10" width="24" height="18" rx="1" fill="#484860" stroke="#3A3A54" stroke-width="0.5"></rect>
    <rect x="34" y="10" width="24" height="18" rx="1" fill="#484860" stroke="#3A3A54" stroke-width="0.5"></rect>
    <rect x="6" y="32" width="24" height="18" rx="1" fill="#424258" stroke="#363650" stroke-width="0.5"></rect>
    <rect x="34" y="32" width="24" height="18" rx="1" fill="#424258" stroke="#363650" stroke-width="0.5"></rect>
    
    <rect x="8" y="12" width="3" height="2" fill="#3A4828" opacity="0.5"></rect>
    <rect x="38" y="34" width="4" height="2" fill="#3A4828" opacity="0.4"></rect>
    
    <rect width="64" height="2" fill="#7878A0" opacity="0.5"></rect>
    
    <text x="32" y="78" text-anchor="middle" font-size="8" fill="#A0A0B4" font-family="monospace">WALL LIT</text>
  </g>

  
  <g transform="translate(64, 32)">
    <rect width="64" height="64" fill="#232332"></rect>
    <rect width="64" height="8" fill="#2A2A3C" opacity="0.8"></rect>
    <rect width="4" height="64" fill="#1E1E2E"></rect>
    
    <rect x="6" y="10" width="24" height="18" rx="1" fill="none" stroke="#2A2A3A" stroke-width="0.5"></rect>
    <rect x="34" y="10" width="24" height="18" rx="1" fill="none" stroke="#2A2A3A" stroke-width="0.5"></rect>
    <rect x="6" y="32" width="24" height="18" rx="1" fill="none" stroke="#2A2A3A" stroke-width="0.5"></rect>
    <rect x="34" y="32" width="24" height="18" rx="1" fill="none" stroke="#2A2A3A" stroke-width="0.5"></rect>
    <text x="32" y="78" text-anchor="middle" font-size="8" fill="#505064" font-family="monospace">WALL DIM</text>
  </g>

  
  <g transform="translate(128, 32)">
    <rect width="64" height="64" fill="url(#floorPat)"></rect>
    
    <line x1="32" y1="0" x2="32" y2="64" stroke="#3A3A4E" stroke-width="1"></line>
    <line x1="0" y1="32" x2="64" y2="32" stroke="#3A3A4E" stroke-width="1"></line>
    
    <rect width="64" height="64" fill="none" stroke="#3A3A4E" stroke-width="1.5"></rect>
    
    <path d="M14 16 L18 22" stroke="#282836" stroke-width="0.8" opacity="0.5"></path>
    <path d="M42 38 L46 42" stroke="#282836" stroke-width="0.8" opacity="0.4"></path>
    
    <circle cx="4" cy="4" r="2" fill="#282834" opacity="0.3"></circle>
    <circle cx="60" cy="60" r="2" fill="#282834" opacity="0.3"></circle>
    <text x="32" y="78" text-anchor="middle" font-size="8" fill="#A0A0B4" font-family="monospace">FLOOR LIT</text>
  </g>

  
  <g transform="translate(192, 32)">
    <rect width="64" height="64" fill="#191923"></rect>
    <line x1="32" y1="0" x2="32" y2="64" stroke="#1E1E28" stroke-width="0.5"></line>
    <line x1="0" y1="32" x2="64" y2="32" stroke="#1E1E28" stroke-width="0.5"></line>
    <rect width="64" height="64" fill="none" stroke="#1E1E28" stroke-width="1"></rect>
    <text x="32" y="78" text-anchor="middle" font-size="8" fill="#505064" font-family="monospace">FLOOR DIM</text>
  </g>

  
  <g transform="translate(256, 32)">
    <rect width="64" height="64" fill="#2D2D3E"></rect>
    <rect width="64" height="64" fill="none" stroke="#3A3A4E" stroke-width="1.5"></rect>
    
    <rect x="8" y="48" width="48" height="12" rx="1" fill="#1A1A28"></rect>
    <rect x="12" y="38" width="40" height="12" rx="1" fill="#222232"></rect>
    <rect x="16" y="28" width="32" height="12" rx="1" fill="#2A2A3A"></rect>
    <rect x="20" y="20" width="24" height="10" rx="1" fill="#323244"></rect>
    
    <rect x="8" y="48" width="48" height="2" fill="#C8A840" opacity="0.5"></rect>
    <rect x="12" y="38" width="40" height="2" fill="#C8A840" opacity="0.4"></rect>
    <rect x="16" y="28" width="32" height="2" fill="#C8A840" opacity="0.35"></rect>
    <rect x="20" y="20" width="24" height="2" fill="#C8A840" opacity="0.3"></rect>
    
    <ellipse cx="32" cy="60" rx="18" ry="6" fill="#D2AF55" opacity="0.15" filter="url(#tileGlow)"></ellipse>
    
    <path d="M32 56 L26 46 L38 46Z" fill="#D2AF55" opacity="0.7" filter="url(#tileGlow)"></path>
    <text x="32" y="78" text-anchor="middle" font-size="8" fill="#D2AF55" font-family="monospace">STAIRS</text>
  </g>

  
  <g transform="translate(320, 32)">
    <rect width="64" height="64" fill="#152814"></rect>
    <rect width="64" height="64" fill="none" stroke="#3CD278" stroke-width="1.5"></rect>
    
    
    <rect x="10" y="36" width="44" height="20" rx="2" fill="#1E3A18"></rect>
    <rect x="10" y="36" width="44" height="4" rx="2" fill="#2A5020"></rect>
    
    <path d="M6 20 L58 20 L54 32 L10 32Z" fill="#2A4818"></path>
    <path d="M6 20 L58 20" stroke="#3CD278" stroke-width="2" opacity="0.8"></path>
    
    <circle cx="20" cy="28" r="3" fill="#D23C3C" opacity="0.7"></circle>
    <circle cx="32" cy="26" r="4" fill="#EBB93C" opacity="0.7"></circle>
    <circle cx="44" cy="28" r="3" fill="#B4B9CD" opacity="0.7"></circle>
    
    <circle cx="32" cy="44" r="5" fill="#EBB93C" opacity="0.6" filter="url(#tileGlow)"></circle>
    <text x="32" y="22" text-anchor="middle" font-size="6" fill="#3CD278" font-family="monospace" opacity="0.7">SHOP</text>
    <text x="32" y="78" text-anchor="middle" font-size="8" fill="#3CD278" font-family="monospace">SHOP</text>
  </g>

  
  <text x="32" y="20" text-anchor="middle" font-size="9" fill="#A0A0B4" font-family="monospace" font-weight="bold">WALL</text>
  <text x="96" y="20" text-anchor="middle" font-size="9" fill="#505064" font-family="monospace">WALL</text>
  <text x="160" y="20" text-anchor="middle" font-size="9" fill="#A0A0B4" font-family="monospace">FLOOR</text>
  <text x="224" y="20" text-anchor="middle" font-size="9" fill="#505064" font-family="monospace">FLOOR</text>
  <text x="288" y="20" text-anchor="middle" font-size="9" fill="#D2AF55" font-family="monospace">STAIRS</text>
  <text x="352" y="20" text-anchor="middle" font-size="9" fill="#3CD278" font-family="monospace">SHOP</text>
  <text x="32" y="12" text-anchor="middle" font-size="7" fill="#646478" font-family="monospace">lit</text>
  <text x="96" y="12" text-anchor="middle" font-size="7" fill="#404050" font-family="monospace">dim</text>
  <text x="160" y="12" text-anchor="middle" font-size="7" fill="#646478" font-family="monospace">lit</text>
  <text x="224" y="12" text-anchor="middle" font-size="7" fill="#404050" font-family="monospace">dim</text>
</svg>